<svg width="150" height="150" viewBox="0 0 150 150" xmlns="http://www.w3.org/2000/svg">
  <defs>
    <linearGradient id="exploreGradient" x1="0%" y1="0%" x2="100%" y2="100%">
      <stop offset="0%" style="stop-color:#00d4ff;stop-opacity:1" />
      <stop offset="100%" style="stop-color:#0099cc;stop-opacity:1" />
    </linearGradient>
    <filter id="glow">
      <feGaussianBlur stdDeviation="3" result="coloredBlur"/>
      <feMerge> 
        <feMergeNode in="coloredBlur"/>
        <feMergeNode in="SourceGraphic"/>
      </feMerge>
    </filter>
  </defs>
  
  <!-- Background circle -->
  <circle cx="75" cy="75" r="70" fill="url(#exploreGradient)" opacity="0.1"/>
  <circle cx="75" cy="75" r="70" fill="none" stroke="url(#exploreGradient)" stroke-width="2" opacity="0.3"/>
  
  <!-- Main compass/exploration icon -->
  <g transform="translate(75, 75)" filter="url(#glow)">
    <!-- Compass outer ring -->
    <circle cx="0" cy="0" r="35" fill="none" stroke="#00d4ff" stroke-width="3" opacity="0.8"/>
    
    <!-- Compass needle -->
    <g>
      <!-- North pointer (red) -->
      <polygon points="0,-25 -6,-10 6,-10" fill="#ff4444" opacity="0.9"/>
      <!-- South pointer (white) -->
      <polygon points="0,25 -6,10 6,10" fill="white" opacity="0.9"/>
      <!-- East pointer -->
      <polygon points="25,0 10,-6 10,6" fill="#00d4ff" opacity="0.7"/>
      <!-- West pointer -->
      <polygon points="-25,0 -10,-6 -10,6" fill="#00d4ff" opacity="0.7"/>
    </g>
    
    <!-- Center circle -->
    <circle cx="0" cy="0" r="4" fill="white"/>
    
    <!-- Cardinal direction markers -->
    <text x="0" y="-45" text-anchor="middle" fill="#00d4ff" font-family="Arial, sans-serif" font-size="12" font-weight="bold">N</text>
    <text x="45" y="5" text-anchor="middle" fill="#00d4ff" font-family="Arial, sans-serif" font-size="12" font-weight="bold">E</text>
    <text x="0" y="55" text-anchor="middle" fill="#00d4ff" font-family="Arial, sans-serif" font-size="12" font-weight="bold">S</text>
    <text x="-45" y="5" text-anchor="middle" fill="#00d4ff" font-family="Arial, sans-serif" font-size="12" font-weight="bold">W</text>
    
    <!-- Search/exploration elements -->
    <g transform="translate(20, -20)" opacity="0.6">
      <circle cx="0" cy="0" r="8" fill="none" stroke="#00d4ff" stroke-width="2"/>
      <line x1="6" y1="6" x2="12" y2="12" stroke="#00d4ff" stroke-width="2" stroke-linecap="round"/>
    </g>
    
    <!-- Discovery dots -->
    <circle cx="-30" cy="-15" r="2" fill="#00d4ff" opacity="0.8"/>
    <circle cx="25" cy="20" r="2" fill="#00d4ff" opacity="0.8"/>
    <circle cx="-20" cy="25" r="2" fill="#00d4ff" opacity="0.8"/>
  </g>
</svg>
